<?xml version="1.0" standalone="no" ?>
<!-- graph visualization -->
<svg viewBox="0 0 400 400" xmlns="http://www.w3.org/2000/svg">
    <path d="M 9 263 L 73 263 " fill="none" stroke="black" stroke-width="5" />
    <path d="M 73 263 L 73 199 " fill="none" stroke="black" stroke-width="5" />
    <path d="M 73 199 L 73 136 " fill="none" stroke="black" stroke-width="5" />
    <path d="M 73 136 L 9 136 " fill="none" stroke="black" stroke-width="5" />
    <path d="M 9 136 L 9 263 " fill="none" stroke="black" stroke-width="5" />
    <path d="M 73 199 L 200 199 " fill="none" stroke="black" stroke-width="5" />
    <path d="M 73 263 L 73 326 " fill="none" stroke="black" stroke-width="5" />
    <path d="M 73 326 L 200 263 " fill="none" stroke="black" stroke-width="5" />
    <path d="M 200 263 L 200 199 " fill="none" stroke="black" stroke-width="5" />
    <path d="M 200 199 L 200 136 " fill="none" stroke="black" stroke-width="5" />
    <path d="M 200 136 L 200 73 " fill="none" stroke="black" stroke-width="5" />
    <path d="M 200 73 L 263 73 " fill="none" stroke="black" stroke-width="5" />
    <path d="M 263 136 L 263 73 " fill="none" stroke="black" stroke-width="5" />
    <path d="M 200 136 L 263 136 " fill="none" stroke="black" stroke-width="5" />
    <path d="M 263 199 L 263 136 " fill="none" stroke="black" stroke-width="5" />
    <path d="M 326 263 L 263 199 " fill="none" stroke="black" stroke-width="5" />
    <path d="M 326 263 L 390 199 " fill="none" stroke="black" stroke-width="5" />
    <path d="M 390 199 L 390 136 " fill="none" stroke="black" stroke-width="5" />
    <path d="M 326 73 L 390 136 " fill="none" stroke="black" stroke-width="5" />
    <path d="M 263 136 L 326 73 " fill="none" stroke="black" stroke-width="5" />
    <circle cx="73" cy="326" r="7" fill="red" stroke="none" />
    <circle cx="9" cy="263" r="7" fill="red" stroke="none" />
    <circle cx="73" cy="263" r="7" fill="red" stroke="none" />
    <circle cx="200" cy="263" r="7" fill="red" stroke="none" />
    <circle cx="326" cy="263" r="7" fill="red" stroke="none" />
    <circle cx="73" cy="199" r="7" fill="red" stroke="none" />
    <circle cx="200" cy="199" r="7" fill="red" stroke="none" />
    <circle cx="263" cy="199" r="7" fill="red" stroke="none" />
    <circle cx="390" cy="199" r="7" fill="red" stroke="none" />
    <circle cx="9" cy="136" r="7" fill="red" stroke="none" />
    <circle cx="73" cy="136" r="7" fill="red" stroke="none" />
    <circle cx="200" cy="136" r="7" fill="red" stroke="none" />
    <circle cx="263" cy="136" r="7" fill="red" stroke="none" />
    <circle cx="390" cy="136" r="7" fill="red" stroke="none" />
    <circle cx="200" cy="73" r="7" fill="red" stroke="none" />
    <circle cx="263" cy="73" r="7" fill="red" stroke="none" />
    <circle cx="326" cy="73" r="7" fill="red" stroke="none" />
    <text x="54" y="331" font-family="Verdana" font-size="13" fill="blue">0</text>
    <text x="6" y="284" font-family="Verdana" font-size="13" fill="blue">1</text>
    <text x="85" y="268" font-family="Verdana" font-size="13" fill="blue">2</text>
    <text x="212" y="268" font-family="Verdana" font-size="13" fill="blue">3</text>
    <text x="335" y="279" font-family="Verdana" font-size="13" fill="blue">4</text>
    <text x="54" y="204" font-family="Verdana" font-size="13" fill="blue">5</text>
    <text x="212" y="204" font-family="Verdana" font-size="13" fill="blue">6</text>
    <text x="244" y="204" font-family="Verdana" font-size="13" fill="blue">7</text>
    <text x="372" y="198" font-family="Verdana" font-size="13" fill="blue">8</text>
    <text x="6" y="125" font-family="Verdana" font-size="13" fill="blue">9</text>
    <text x="65" y="125" font-family="Verdana" font-size="13" fill="blue">10</text>
    <text x="176" y="141" font-family="Verdana" font-size="13" fill="blue">11</text>
    <text x="270" y="147" font-family="Verdana" font-size="13" fill="blue">12</text>
    <text x="367" y="147" font-family="Verdana" font-size="13" fill="blue">13</text>
    <text x="176" y="78" font-family="Verdana" font-size="13" fill="blue">14</text>
    <text x="255" y="62" font-family="Verdana" font-size="13" fill="blue">15</text>
    <text x="312" y="63" font-family="Verdana" font-size="13" fill="blue">16</text>
</svg>
